<svg xmlns="http://www.w3.org/2000/svg" xmlns:xlink="http://www.w3.org/1999/xlink" width="17" height="17" viewBox="0 0 17 17">
  <defs>
    <style>
      .cls-1 {
        fill-rule: evenodd;
      }
    </style>
    <clipPath id="clip-path">
      <rect y="1.5" width="17" height="14"/>
    </clipPath>
  </defs>
  <g clip-path="url(#clip-path)">
    <path id="arrow" class="cls-1" d="M16.273,4.176a2.376,2.376,0,0,0-1.707-.7H11.021a3.266,3.266,0,0,0,.208-1.171A2.08,2.08,0,0,0,10.457.579,3.052,3.052,0,0,0,8.5-.034a1.368,1.368,0,0,0-.658.16,1.606,1.606,0,0,0-.522.453,5.215,5.215,0,0,0-.384.577q-0.161.284-.351,0.659t-0.313.568a10.019,10.019,0,0,1-.948,1.18c-0.013.019-.057,0.07-0.133,0.156s-0.136.151-.18,0.2l-0.194.2a2.441,2.441,0,0,1-.228.206q-0.1.078-.213,0.165a0.889,0.889,0,0,1-.223.128,0.582,0.582,0,0,1-.2.041H1.22a1.191,1.191,0,0,0-.858.343,1.109,1.109,0,0,0-.356.828V11.68a1.107,1.107,0,0,0,.356.828,1.191,1.191,0,0,0,.858.343h2.73a8.083,8.083,0,0,1,2.114.54,9.478,9.478,0,0,0,3.052.631,3.085,3.085,0,0,0,2.151-.737,2.543,2.543,0,0,0,.806-2.008,2.521,2.521,0,0,0,.569-1.629,2.742,2.742,0,0,0-.028-0.394,2.412,2.412,0,0,0,.351-1.089h1.6a2.369,2.369,0,0,0,1.711-.7,2.231,2.231,0,0,0,.716-1.656,2.207,2.207,0,0,0-.72-1.639h0Zm-14.02,7.33a0.609,0.609,0,0,1-.853,0,0.56,0.56,0,0,1,0-.823,0.609,0.609,0,0,1,.853,0,0.559,0.559,0,0,1,0,.823h0ZM15.419,6.647A1.19,1.19,0,0,1,14.566,7H11.428a1.216,1.216,0,0,1,.237.434,1.6,1.6,0,0,1,.095.508,1.426,1.426,0,0,1-.5,1.089,1.235,1.235,0,0,1,.17.631,1.494,1.494,0,0,1-.166.672,1.034,1.034,0,0,1-.45.48,3,3,0,0,1,.048.513q0,1.528-1.792,1.528a5.735,5.735,0,0,1-1.7-.293q-0.934-.293-1.834-0.586a5.205,5.205,0,0,0-1.583-.293h-0.3V5.824h0.3A2.12,2.12,0,0,0,5.276,5.3a10.55,10.55,0,0,0,.957-0.97A10.275,10.275,0,0,0,7.3,3q0.124-.193.351-0.6A2.632,2.632,0,0,1,8.5,1.138a1.952,1.952,0,0,1,1.095.279,0.992,0.992,0,0,1,.422.892,2.189,2.189,0,0,1-.143.773,2.761,2.761,0,0,1-.312.622,5.253,5.253,0,0,0-.313.5,0.975,0.975,0,0,0-.142.444h5.46A1.186,1.186,0,0,1,15.41,5a1.107,1.107,0,0,1,.01,1.643h0Zm0,0" transform="translate(0 1.5)"/>
  </g>
</svg>
