<svg xmlns="http://www.w3.org/2000/svg" width="25" height="25" viewBox="0 0 25 25">
  <defs>
    <style>
      .cls-1 {
        fill-rule: evenodd;
      }
    </style>
  </defs>
  <path id="insta" class="cls-1" d="M13.7,11.5a2.2,2.2,0,1,1-2.2-2.2,2.2,2.2,0,0,1,2.2,2.2h0Zm0,0,2.947-3.894a2.186,2.186,0,0,0-1.253-1.253,3.654,3.654,0,0,0-1.226-.227c-0.7-.032-0.905-0.039-2.668-0.039s-1.972.007-2.668,0.038a3.655,3.655,0,0,0-1.226.227A2.187,2.187,0,0,0,6.352,7.606a3.656,3.656,0,0,0-.227,1.226c-0.032.7-.039,0.905-0.039,2.668s0.007,1.972.039,2.669a3.655,3.655,0,0,0,.227,1.226,2.186,2.186,0,0,0,1.253,1.253,3.65,3.65,0,0,0,1.226.227c0.7,0.032.9,0.038,2.668,0.038s1.972-.007,2.668-0.038a3.65,3.65,0,0,0,1.226-.227,2.187,2.187,0,0,0,1.253-1.253,3.653,3.653,0,0,0,.227-1.226c0.032-.7.038-0.905,0.038-2.668s-0.007-1.972-.038-2.668a3.645,3.645,0,0,0-.227-1.226h0ZM11.5,14.891A3.391,3.391,0,1,1,14.891,11.5,3.391,3.391,0,0,1,11.5,14.891h0Zm3.525-6.123a0.792,0.792,0,1,1,.792-0.793,0.793,0.793,0,0,1-.792.793h0Zm0,0M11.5,0A11.5,11.5,0,1,0,23,11.5,11.5,11.5,0,0,0,11.5,0h0Zm6.564,14.222a4.843,4.843,0,0,1-.307,1.6,3.376,3.376,0,0,1-1.931,1.931,4.848,4.848,0,0,1-1.6.307c-0.7.032-.929,0.04-2.722,0.04s-2.018-.008-2.723-0.04a4.848,4.848,0,0,1-1.6-.307,3.376,3.376,0,0,1-1.931-1.931,4.842,4.842,0,0,1-.307-1.6C4.9,13.518,4.9,13.293,4.9,11.5s0.008-2.018.04-2.722a4.844,4.844,0,0,1,.307-1.6A3.378,3.378,0,0,1,7.175,5.243a4.849,4.849,0,0,1,1.6-.307C9.482,4.9,9.707,4.9,11.5,4.9s2.018,0.008,2.723.04a4.849,4.849,0,0,1,1.6.307,3.377,3.377,0,0,1,1.931,1.931,4.843,4.843,0,0,1,.307,1.6c0.032,0.7.04,0.929,0.04,2.723s-0.008,2.018-.04,2.722h0Zm0,0" transform="translate(1 1)"/>
</svg>
