<svg xmlns="http://www.w3.org/2000/svg" width="25" height="25" viewBox="0 0 25 25">
  <defs>
    <style>
      .cls-1 {
        fill-rule: evenodd;
      }
    </style>
  </defs>
  <path id="linkden" class="cls-1" d="M11.5,0A11.5,11.5,0,1,0,23,11.5,11.5,11.5,0,0,0,11.5,0h0ZM8.158,17.385h-2.8V8.959h2.8v8.426Zm-1.4-9.577H6.74A1.46,1.46,0,1,1,6.777,4.9a1.46,1.46,0,1,1-.019,2.912h0Zm11.5,9.577h-2.8V12.877c0-1.133-.405-1.905-1.419-1.905A1.533,1.533,0,0,0,12.6,12a1.917,1.917,0,0,0-.092.684v4.705h-2.8s0.037-7.636,0-8.426h2.8v1.193a2.78,2.78,0,0,1,2.524-1.391c1.843,0,3.224,1.2,3.224,3.792v4.831Zm0,0" transform="translate(1 1)"/>
</svg>
