<svg xmlns="http://www.w3.org/2000/svg" width="260" height="100" viewBox="0 0 386 100">
  <defs>
    <style>
      .cls-1 {
        fill: #1f6297;
        fill-rule: evenodd;
      }
    </style>
  </defs>
  <path id="logo" class="cls-1" d="M116.942,11.354h16.741q5.873,0,9.358,2.847a8.934,8.934,0,0,1,3.486,7.227q0,6.516-7.63,8.815a9.626,9.626,0,0,1,6.2,3.23,9.361,9.361,0,0,1,2.305,6.3,8.881,8.881,0,0,1-3.376,7.309q-3.375,2.71-9.413,2.71H116.942V11.354Zm9.386,7.117v8.322h6.147a4.9,4.9,0,0,0,3.266-1.04,3.814,3.814,0,0,0,1.235-3.094,3.9,3.9,0,0,0-1.235-3.121,4.819,4.819,0,0,0-3.266-1.068h-6.147Zm0,24.2h7.081a4.547,4.547,0,0,0,3.183-1.15,4.077,4.077,0,0,0,1.263-3.175,4.359,4.359,0,0,0-1.208-3.23,4.241,4.241,0,0,0-3.128-1.2h-7.191v8.76ZM162.5,15.789a5.489,5.489,0,0,1-9.386-3.915,5.489,5.489,0,1,1,10.978,0A5.312,5.312,0,0,1,162.5,15.789Zm-8.563,34V19.238h9.386v30.55h-9.386Zm17.619,0V9.273h9.386V49.788h-9.386Zm17.619,0V9.273h9.386V49.788h-9.386Zm26.181-34a5.488,5.488,0,0,1-9.385-3.915,5.489,5.489,0,1,1,10.977,0A5.312,5.312,0,0,1,215.355,15.789Zm-8.562,34V19.238h9.385v30.55h-9.385Zm20.061-3.942a14.841,14.841,0,0,1-4.637-11.388,14.623,14.623,0,0,1,4.61-11.306,17.443,17.443,0,0,1,22.806,0,14.67,14.67,0,0,1,4.583,11.306,14.977,14.977,0,0,1-4.556,11.388A15.859,15.859,0,0,1,238.3,50.171,16.146,16.146,0,0,1,226.854,45.846ZM242.8,40.207a7.971,7.971,0,0,0,1.866-5.694,7.732,7.732,0,0,0-1.921-5.667,6.191,6.191,0,0,0-4.555-1.944,6.1,6.1,0,0,0-4.528,1.944,7.8,7.8,0,0,0-1.894,5.667,7.761,7.761,0,0,0,1.948,5.694,6.238,6.238,0,0,0,4.583,1.971A5.975,5.975,0,0,0,242.8,40.207Zm26.84-20.969v4.489q2.908-4.817,9.276-4.818a11.13,11.13,0,0,1,8.535,3.5q3.264,3.5,3.266,9.526V49.788h-9.331V33.2a6.3,6.3,0,0,0-1.565-4.572,6.555,6.555,0,0,0-8.617,0,6.3,6.3,0,0,0-1.564,4.572V49.788h-9.386V19.238h9.386ZM120.785,77.258V93.08h-3.843V55.3h11.582q6.366,0,9.66,3.038a10.016,10.016,0,0,1,3.293,7.692,10.842,10.842,0,0,1-2.58,7.528q-2.58,2.875-7.684,3.531L141.971,93.08h-5L126.712,77.258h-5.927Zm0-18.834V74.137h7.739q9.055,0,9.056-7.856t-9.056-7.857h-7.739Zm41.769,35.2a13.644,13.644,0,0,1-10.429-4.271q-4.008-4.27-4.007-11.251t4.089-11.223A14.057,14.057,0,0,1,162.8,62.64q6.5,0,10.346,4a13.745,13.745,0,0,1,3.842,9.91,18.726,18.726,0,0,1-.22,2.956h-24.7a11.806,11.806,0,0,0,3.129,8.1,9.884,9.884,0,0,0,7.355,2.957,10.585,10.585,0,0,0,5.9-1.588,8.223,8.223,0,0,0,3.375-4.161h4.117A13.507,13.507,0,0,1,162.554,93.628Zm10.483-17.136a10.5,10.5,0,0,0-2.991-7.857,10.843,10.843,0,0,0-14.765-.055,11.487,11.487,0,0,0-3.211,7.912h20.967Zm9.386-5.037a7.842,7.842,0,0,1,3.073-6.269,11.894,11.894,0,0,1,7.849-2.546q4.776,0,7.437,2.491A9.845,9.845,0,0,1,203.719,72h-3.952a6.256,6.256,0,0,0-6.751-6.3,7.292,7.292,0,0,0-4.912,1.533,4.71,4.71,0,0,0-1.785,3.7,4.51,4.51,0,0,0,1.318,3.422,6.772,6.772,0,0,0,3.321,1.7q2,0.439,4.336,1.04t4.336,1.287a6.811,6.811,0,0,1,3.321,2.463,7.487,7.487,0,0,1,1.317,4.572,7.117,7.117,0,0,1-3.019,5.913,12.747,12.747,0,0,1-7.931,2.3,11.321,11.321,0,0,1-7.767-2.519,9.508,9.508,0,0,1-3.128-6.843h3.951a6.309,6.309,0,0,0,1.976,4.544,7.2,7.2,0,0,0,5.132,1.752,8.148,8.148,0,0,0,5.077-1.4,4.332,4.332,0,0,0,1.812-3.586,4.548,4.548,0,0,0-1.317-3.449,6.988,6.988,0,0,0-3.321-1.724q-2-.465-4.336-1.068t-4.336-1.259A6.639,6.639,0,0,1,182.423,71.454Zm41.851,22.174a13.766,13.766,0,0,1-10.484-4.271q-4.033-4.27-4.033-11.2a15.214,15.214,0,0,1,4.281-11.224,15.477,15.477,0,0,1,21.406,0,15.144,15.144,0,0,1,4.281,11.169,14.835,14.835,0,0,1-4.5,11.2A15.215,15.215,0,0,1,224.274,93.628Zm-0.027-3.066a11.128,11.128,0,0,0,8.068-3.34q3.4-3.339,3.4-9.116t-3.238-9.088a10.637,10.637,0,0,0-7.9-3.312,10.323,10.323,0,0,0-7.794,3.285q-3.129,3.284-3.129,9.143t2.964,9.143A9.81,9.81,0,0,0,224.247,90.562Zm43.141-27.375h3.842V93.08h-3.842V88.208q-3.019,5.421-9.935,5.42a11.488,11.488,0,0,1-8.343-3.258q-3.348-3.257-3.347-9.389V63.187h3.786V80.269q0,4.927,2.388,7.5a9.576,9.576,0,0,0,13.064,0q2.387-2.572,2.387-7.5V63.187Zm15.917,0v4.927q2.469-5.474,9.276-5.475v4h-1.1a8.157,8.157,0,0,0-6.065,2.135q-2.113,2.135-2.113,7.336V93.08h-3.843V63.187h3.843Zm17.618,26.17q-4.006-4.27-4.006-11.223t4.006-11.224a13.646,13.646,0,0,1,10.429-4.27q10.539,0,13.393,9.417h-4.117a8.642,8.642,0,0,0-3.321-4.681,10.141,10.141,0,0,0-5.955-1.67,9.757,9.757,0,0,0-7.575,3.2q-2.908,3.2-2.909,9.2t2.909,9.225a9.716,9.716,0,0,0,7.575,3.23,10.133,10.133,0,0,0,5.955-1.67,8.635,8.635,0,0,0,3.321-4.681h4.117a13.994,13.994,0,0,1-4.775,6.843A15.227,15.227,0,0,1,300.923,89.357Zm43.361,4.271a13.641,13.641,0,0,1-10.428-4.271q-4.008-4.27-4.007-11.251t4.089-11.223a14.055,14.055,0,0,1,10.593-4.243q6.5,0,10.346,4a13.745,13.745,0,0,1,3.843,9.91,18.726,18.726,0,0,1-.22,2.956H333.8a11.8,11.8,0,0,0,3.128,8.1,9.885,9.885,0,0,0,7.355,2.957,10.588,10.588,0,0,0,5.9-1.588,8.228,8.228,0,0,0,3.375-4.161h4.117A13.507,13.507,0,0,1,344.284,93.628Zm10.483-17.136a10.5,10.5,0,0,0-2.991-7.857,10.843,10.843,0,0,0-14.765-.055,11.487,11.487,0,0,0-3.21,7.912h20.966Zm9.386-5.037a7.84,7.84,0,0,1,3.074-6.269,11.894,11.894,0,0,1,7.849-2.546q4.774,0,7.437,2.491A9.854,9.854,0,0,1,385.45,72H381.5a6.256,6.256,0,0,0-6.751-6.3,7.3,7.3,0,0,0-4.913,1.533,4.712,4.712,0,0,0-1.784,3.7,4.509,4.509,0,0,0,1.317,3.422,6.781,6.781,0,0,0,3.321,1.7q2,0.439,4.336,1.04t4.336,1.287a6.8,6.8,0,0,1,3.321,2.463A7.487,7.487,0,0,1,386,85.416a7.117,7.117,0,0,1-3.019,5.913,12.748,12.748,0,0,1-7.932,2.3,11.32,11.32,0,0,1-7.766-2.519,9.513,9.513,0,0,1-3.129-6.843h3.952a6.309,6.309,0,0,0,1.976,4.544,7.2,7.2,0,0,0,5.132,1.752,8.148,8.148,0,0,0,5.077-1.4A4.331,4.331,0,0,0,382.1,85.58a4.544,4.544,0,0,0-1.317-3.449,6.985,6.985,0,0,0-3.32-1.724q-2.005-.465-4.336-1.068t-4.337-1.259A6.642,6.642,0,0,1,364.153,71.454ZM50.129,0A50,50,0,0,0,4.448,70.616q0.639,1.412,1.365,2.771Q6.74,75.137,7.8,76.8a50.544,50.544,0,0,0,4.648,6.184q1.167,1.32,2.417,2.559c0.2,0.2.409,0.4,0.613,0.59,0.783,0.75,1.587,1.47,2.417,2.168,0.2,0.169.4,0.334,0.609,0.5q1.18,0.963,2.422,1.847a49.626,49.626,0,0,0,7.308,4.35c0.787,0.382,1.591.746,2.4,1.084q0.313,0.137.626,0.26,1.187,0.488,2.4.9c0.2,0.074.413,0.147,0.626,0.217q1.187,0.39,2.4.729a50.614,50.614,0,0,0,27.081-.056c0.8-.225,1.587-0.468,2.365-0.729,0.222-.074.444-0.152,0.665-0.23,0.8-.282,1.582-0.577,2.361-0.9,0.222-.091.443-0.186,0.665-0.278q1.2-.514,2.365-1.084A49.835,49.835,0,0,0,79.5,90.526c0.835-.6,1.648-1.227,2.439-1.882,0.2-.16.4-0.321,0.591-0.49,0.835-.7,1.652-1.44,2.439-2.2,0.2-.191.4-0.382,0.587-0.572,0.843-.846,1.661-1.713,2.439-2.611a50.041,50.041,0,0,0,4.648-6.262q0.991-1.581,1.865-3.231c0.478-.911.935-1.834,1.356-2.775A50.01,50.01,0,0,0,50.129,0ZM92.648,69.059c-0.326.729-.678,1.449-1.043,2.164a38.206,38.206,0,0,0-3.361-1.908,0.2,0.2,0,0,1-.109-0.186V64.653a2.1,2.1,0,0,0,.926-1.743V58.266a4.186,4.186,0,0,0-4.187-4.176h-1a4.186,4.186,0,0,0-4.187,4.176V62.91a2.118,2.118,0,0,0,.93,1.743v3.955c0.8,0.559,1.617,1.188,2.435,1.839A5.24,5.24,0,0,1,84.97,74.5v6.609c-0.783.872-1.6,1.718-2.439,2.52V74.532a2.823,2.823,0,0,0-1-2.19,41.3,41.3,0,0,0-3.943-2.84,44.641,44.641,0,0,0-3.891-2.229c-0.178-.091-0.322-0.16-0.417-0.2a0.245,0.245,0,0,1-.148-0.221V61.275A2.589,2.589,0,0,0,74.3,59.1V53.309a5.232,5.232,0,0,0-5.23-5.217H67.806a5.24,5.24,0,0,0-4.965,3.573,5.153,5.153,0,0,0-.269,1.644V59.1a2.588,2.588,0,0,0,1.174,2.173v5.573a0.149,0.149,0,0,1-.017.091c1.1,0.763,2.252,1.6,3.369,2.507a5.594,5.594,0,0,1,1.926,3.118,0.016,0.016,0,0,1,0,.013c0.017,0.065.026,0.126,0.039,0.191,0.017,0.087.031,0.178,0.044,0.269v0.017c0.009,0.056.013,0.113,0.022,0.169,0.009,0.082.017,0.16,0.022,0.243,0,0.009,0,.022,0,0.03,0,0.108,0,.221,0,0.334V92.612c-0.778.343-1.565,0.672-2.361,0.976V73.808a3.259,3.259,0,0,0-1.191-2.541,50.455,50.455,0,0,0-6.2-4.293c-1.722-1.028-3.048-1.691-3.5-1.912a0.287,0.287,0,0,1-.169-0.278V58.231a3.089,3.089,0,0,0,1.378-2.546v-6.8c0-.187-0.009-0.373-0.026-0.555A6.139,6.139,0,0,0,51.8,42.818a5.794,5.794,0,0,0-.826-0.056H49.507a5.967,5.967,0,0,0-1.048.091,6.137,6.137,0,0,0-5.069,5.482c-0.009.082-.013,0.169-0.017,0.252-0.009.1-.009,0.2-0.009,0.3v6.8a3.018,3.018,0,0,0,1.378,2.546v6.553a0.338,0.338,0,0,1-.169.278c-0.217.1-.635,0.312-1.2,0.611l-0.235.126c-0.77.416-1.774,0.98-2.9,1.678-0.1.065-.209,0.13-0.317,0.2s-0.235.152-.356,0.225v0h0c-0.122.078-.248,0.156-0.374,0.239-0.339.221-.687,0.451-1.039,0.694-0.1.065-.2,0.13-0.291,0.2-0.2.134-.4,0.273-0.591,0.416-0.135.091-.265,0.186-0.4,0.286-0.165.117-.331,0.239-0.5,0.364-0.23.169-.465,0.351-0.7,0.533-0.265.2-.53,0.416-0.8,0.633a3.3,3.3,0,0,0-1.209,2.541V93.666q-1.219-.455-2.4-0.984V73.791c0-.082,0-0.165.009-0.247,0-.065,0-0.134.009-0.2s0.013-.13.017-0.2,0.022-.16.035-0.239v0a5.588,5.588,0,0,1,2-3.5c1.117-.932,2.269-1.765,3.369-2.511a0.107,0.107,0,0,0,0-.074V61.258a2.6,2.6,0,0,0,1.169-2.173V53.291a5.159,5.159,0,0,0-.261-1.626,0.875,0.875,0,0,0-.048-0.139l-0.052-.143-0.065-.156c-0.017-.048-0.044-0.1-0.065-0.147l-0.052-.1a3.462,3.462,0,0,0-.178-0.33,1.034,1.034,0,0,0-.056-0.091c-0.035-.061-0.074-0.121-0.113-0.182-0.031-.039-0.056-0.082-0.087-0.121a0.822,0.822,0,0,0-.056-0.074l-0.039-.052c-0.026-.039-0.061-0.078-0.091-0.117C36.69,50,36.677,49.974,36.66,49.957c-0.1-.121-0.209-0.238-0.322-0.351L36.3,49.566c-0.1-.1-0.2-0.191-0.313-0.282-0.052-.043-0.109-0.087-0.165-0.13s-0.1-.074-0.148-0.113l-0.044-.03-0.117-.078q-0.092-.065-0.183-0.117c-0.065-.039-0.131-0.078-0.2-0.113-0.048-.026-0.1-0.052-0.148-0.078s-0.091-.043-0.139-0.065A1.358,1.358,0,0,0,34.7,48.5c-0.048-.022-0.1-0.043-0.144-0.061a0.016,0.016,0,0,0-.013,0c-0.013-.009-0.031-0.013-0.044-0.022a0.044,0.044,0,0,1-.013,0,0.374,0.374,0,0,1-.074-0.026,1.452,1.452,0,0,0-.148-0.048,5.2,5.2,0,0,0-1.63-.26H31.373a5.229,5.229,0,0,0-5.23,5.217v5.794a2.588,2.588,0,0,0,1.174,2.173v5.568a0.248,0.248,0,0,1-.152.226c-0.122.061-.322,0.16-0.583,0.295-0.787.412-2.148,1.145-3.722,2.151a41.088,41.088,0,0,0-3.943,2.828A2.827,2.827,0,0,0,17.9,74.5v9.289c-0.835-.794-1.643-1.618-2.417-2.476v-6.8a5.2,5.2,0,0,1,1.913-4.05c0.8-.668,1.639-1.279,2.439-1.839V64.675a2.107,2.107,0,0,0,.935-1.748v-4.64a4.194,4.194,0,0,0-4.191-4.181h-1a4.19,4.19,0,0,0-4.187,4.181v4.64a2.133,2.133,0,0,0,.926,1.748v4.475a0.2,0.2,0,0,1-.109.182c-0.2.1-.674,0.338-1.309,0.685-0.6.334-1.356,0.768-2.182,1.3q-0.554-1.06-1.048-2.147A46.577,46.577,0,1,1,96.731,50,46.247,46.247,0,0,1,92.648,69.059Z"/>
</svg>
