<svg xmlns="http://www.w3.org/2000/svg" width="25" height="25" viewBox="0 0 25 25">
  <defs>
    <style>
      .cls-1 {
        fill-rule: evenodd;
      }
    </style>
  </defs>
  <path id="twiiter" class="cls-1" d="M11.5,0A11.5,11.5,0,1,0,23,11.5,11.513,11.513,0,0,0,11.5,0h0Zm5.132,8.869c0,0.113.006,0.228,0.006,0.344a7.528,7.528,0,0,1-11.589,6.34,5.322,5.322,0,0,0,3.919-1.095A2.651,2.651,0,0,1,6.5,12.618a2.538,2.538,0,0,0,.5.048,2.618,2.618,0,0,0,.7-0.093A2.647,2.647,0,0,1,5.566,9.979a0.171,0.171,0,0,1,0-.034,2.613,2.613,0,0,0,1.2.33,2.648,2.648,0,0,1-.821-3.533A7.515,7.515,0,0,0,11.4,9.509a2.649,2.649,0,0,1,4.51-2.416,5.229,5.229,0,0,0,1.683-.642,2.658,2.658,0,0,1-1.165,1.465,5.248,5.248,0,0,0,1.52-.416,5.384,5.384,0,0,1-1.318,1.368h0Zm0,0" transform="translate(1 1)"/>
</svg>
